<mxfile host="Electron" modified="2024-01-02T10:54:30.955Z" agent="Mozilla/5.0 (Windows NT 10.0; Win64; x64) AppleWebKit/537.36 (KHTML, like Gecko) draw.io/22.1.2 Chrome/114.0.5735.289 Electron/25.9.4 Safari/537.36" etag="UNY8FcNKb_3HY1QA83OS" version="22.1.2" type="device">
  <diagram name="Page-1" id="CyPKNQ1HU_vYMt_n4ujV">
    <mxGraphModel dx="714" dy="430" grid="1" gridSize="10" guides="1" tooltips="1" connect="1" arrows="1" fold="1" page="1" pageScale="1" pageWidth="583" pageHeight="413" math="0" shadow="0">
      <root>
        <mxCell id="0" />
        <mxCell id="1" parent="0" />
        <mxCell id="dVzY-ISP-nyTnl-DAH4u-1" value="EffectComposer" style="rounded=0;whiteSpace=wrap;html=1;fillColor=#FFFFFF;align=left;fontSize=14;verticalAlign=top;fontStyle=1;arcSize=5;spacingLeft=7;glass=0;" parent="1" vertex="1">
          <mxGeometry x="80" y="40" width="190" height="165" as="geometry" />
        </mxCell>
        <mxCell id="dVzY-ISP-nyTnl-DAH4u-3" value="RenderPass" style="rounded=0;whiteSpace=wrap;html=1;fillColor=#E6E6E6;align=left;strokeColor=#999999;strokeWidth=0.5;spacingLeft=4;glass=0;" parent="1" vertex="1">
          <mxGeometry x="90" y="70" width="170" height="20" as="geometry" />
        </mxCell>
        <mxCell id="dVzY-ISP-nyTnl-DAH4u-5" value="ShaderPass" style="rounded=0;whiteSpace=wrap;html=1;fillColor=#E6E6E6;align=left;strokeColor=#999999;strokeWidth=0.5;arcSize=8;spacingLeft=4;glass=0;" parent="1" vertex="1">
          <mxGeometry x="90" y="95" width="170" height="35" as="geometry" />
        </mxCell>
        <mxCell id="dVzY-ISP-nyTnl-DAH4u-7" value="&lt;div style=&quot;&quot;&gt;&lt;span style=&quot;font-size: 6px; background-color: initial;&quot;&gt;&lt;font color=&quot;#808080&quot;&gt;THREEJS SHADER:&lt;/font&gt;&lt;/span&gt;&lt;/div&gt;RGBShiftShader" style="rounded=0;whiteSpace=wrap;html=1;fillColor=#FFFFFF;align=left;strokeColor=#B3B3B3;strokeWidth=0.5;dashed=1;dashPattern=1 1;fontSize=10;glass=0;" parent="1" vertex="1">
          <mxGeometry x="175" y="100" width="80" height="25" as="geometry" />
        </mxCell>
        <mxCell id="dVzY-ISP-nyTnl-DAH4u-8" value="ShaderPass" style="rounded=0;whiteSpace=wrap;html=1;fillColor=#E6E6E6;align=left;strokeColor=#999999;strokeWidth=0.5;arcSize=10;spacingLeft=4;glass=0;" parent="1" vertex="1">
          <mxGeometry x="90" y="135" width="170" height="35" as="geometry" />
        </mxCell>
        <mxCell id="dVzY-ISP-nyTnl-DAH4u-9" value="&lt;font style=&quot;font-size: 6px;&quot; color=&quot;#808080&quot;&gt;THREEJS SHADER:&lt;/font&gt;&lt;br&gt;ColorifyShader" style="rounded=0;whiteSpace=wrap;html=1;fillColor=#FFFFFF;align=left;strokeColor=#B3B3B3;strokeWidth=0.5;dashed=1;dashPattern=1 1;fontSize=10;glass=0;" parent="1" vertex="1">
          <mxGeometry x="175" y="140" width="80" height="25" as="geometry" />
        </mxCell>
        <mxCell id="dVzY-ISP-nyTnl-DAH4u-10" value="OutputPass" style="rounded=0;whiteSpace=wrap;html=1;fillColor=#E6E6E6;align=left;strokeColor=#999999;strokeWidth=0.5;spacingLeft=4;glass=0;" parent="1" vertex="1">
          <mxGeometry x="90" y="175" width="170" height="20" as="geometry" />
        </mxCell>
        <mxCell id="dVzY-ISP-nyTnl-DAH4u-11" value="EffectComposer" style="rounded=0;whiteSpace=wrap;html=1;fillColor=#FFFFFF;align=left;fontSize=14;fontStyle=1;verticalAlign=top;spacingLeft=7;glass=0;" parent="1" vertex="1">
          <mxGeometry x="310" y="40" width="185" height="140" as="geometry" />
        </mxCell>
        <mxCell id="dVzY-ISP-nyTnl-DAH4u-13" value="RenderPass" style="rounded=0;whiteSpace=wrap;html=1;fillColor=#E6E6E6;align=left;strokeColor=#999999;strokeWidth=0.5;spacingLeft=4;glass=0;" parent="1" vertex="1">
          <mxGeometry x="320" y="70" width="165" height="20" as="geometry" />
        </mxCell>
        <mxCell id="dVzY-ISP-nyTnl-DAH4u-14" value="ShaderPass" style="rounded=0;whiteSpace=wrap;html=1;fillColor=#E6E6E6;align=left;strokeColor=#999999;strokeWidth=0.5;arcSize=6;spacingLeft=4;glass=0;" parent="1" vertex="1">
          <mxGeometry x="320" y="95" width="165" height="50" as="geometry" />
        </mxCell>
        <mxCell id="dVzY-ISP-nyTnl-DAH4u-18" value="OutputPass" style="rounded=0;whiteSpace=wrap;html=1;fillColor=#E6E6E6;align=left;strokeColor=#999999;strokeWidth=0.5;spacingLeft=4;glass=0;" parent="1" vertex="1">
          <mxGeometry x="320" y="150" width="165" height="20" as="geometry" />
        </mxCell>
        <mxCell id="dVzY-ISP-nyTnl-DAH4u-41" value="&lt;font style=&quot;font-size: 6px;&quot; color=&quot;#808080&quot;&gt;OOPSJS SHADER:&lt;/font&gt;&lt;br&gt;RGBShiftShader&lt;br&gt;ColorifyShader" style="rounded=0;whiteSpace=wrap;html=1;fillColor=#FFFFFF;align=left;strokeColor=#B3B3B3;strokeWidth=0.5;dashed=1;dashPattern=1 1;fontSize=10;glass=0;" parent="1" vertex="1">
          <mxGeometry x="400" y="100" width="80" height="40" as="geometry" />
        </mxCell>
        <mxCell id="dVzY-ISP-nyTnl-DAH4u-46" value="" style="endArrow=classic;html=1;rounded=0;" parent="1" edge="1">
          <mxGeometry width="50" height="50" relative="1" as="geometry">
            <mxPoint x="275" y="110" as="sourcePoint" />
            <mxPoint x="305" y="110" as="targetPoint" />
          </mxGeometry>
        </mxCell>
        <mxCell id="dVzY-ISP-nyTnl-DAH4u-48" value="Test 1A" style="text;html=1;strokeColor=none;fillColor=none;align=left;verticalAlign=middle;whiteSpace=wrap;rounded=0;" parent="1" vertex="1">
          <mxGeometry x="80" y="20" width="60" height="20" as="geometry" />
        </mxCell>
        <mxCell id="dVzY-ISP-nyTnl-DAH4u-49" value="Test 1B" style="text;html=1;strokeColor=none;fillColor=none;align=left;verticalAlign=middle;whiteSpace=wrap;rounded=0;" parent="1" vertex="1">
          <mxGeometry x="310" y="20" width="60" height="20" as="geometry" />
        </mxCell>
        <mxCell id="LNhnB2jVi7hmLSDCqyhb-1" value="EffectComposer" style="rounded=0;whiteSpace=wrap;html=1;fillColor=#FFFFFF;align=left;fontSize=14;verticalAlign=top;fontStyle=1;arcSize=5;spacingLeft=7;glass=0;" vertex="1" parent="1">
          <mxGeometry x="80" y="280" width="240" height="205" as="geometry" />
        </mxCell>
        <mxCell id="LNhnB2jVi7hmLSDCqyhb-2" value="RenderPass" style="rounded=0;whiteSpace=wrap;html=1;fillColor=#E6E6E6;align=left;strokeColor=#999999;strokeWidth=0.5;spacingLeft=4;glass=0;" vertex="1" parent="1">
          <mxGeometry x="90" y="310" width="220" height="20" as="geometry" />
        </mxCell>
        <mxCell id="LNhnB2jVi7hmLSDCqyhb-3" value="ShaderPass" style="rounded=0;whiteSpace=wrap;html=1;fillColor=#E6E6E6;align=left;strokeColor=#999999;strokeWidth=0.5;arcSize=8;spacingLeft=4;glass=0;" vertex="1" parent="1">
          <mxGeometry x="90" y="335" width="220" height="35" as="geometry" />
        </mxCell>
        <mxCell id="LNhnB2jVi7hmLSDCqyhb-4" value="&lt;div style=&quot;&quot;&gt;&lt;span style=&quot;font-size: 6px; background-color: initial;&quot;&gt;&lt;font color=&quot;#808080&quot;&gt;THREEJS SHADER:&lt;/font&gt;&lt;/span&gt;&lt;/div&gt;RGBShiftShader" style="rounded=0;whiteSpace=wrap;html=1;fillColor=#FFFFFF;align=left;strokeColor=#B3B3B3;strokeWidth=0.5;dashed=1;dashPattern=1 1;fontSize=10;glass=0;" vertex="1" parent="1">
          <mxGeometry x="175" y="340" width="130" height="25" as="geometry" />
        </mxCell>
        <mxCell id="LNhnB2jVi7hmLSDCqyhb-5" value="ShaderPass" style="rounded=0;whiteSpace=wrap;html=1;fillColor=#E6E6E6;align=left;strokeColor=#999999;strokeWidth=0.5;arcSize=10;spacingLeft=4;glass=0;" vertex="1" parent="1">
          <mxGeometry x="90" y="415" width="220" height="35" as="geometry" />
        </mxCell>
        <mxCell id="LNhnB2jVi7hmLSDCqyhb-6" value="&lt;font style=&quot;font-size: 6px;&quot; color=&quot;#808080&quot;&gt;THREEJS SHADER:&lt;/font&gt;&lt;br&gt;BrightnessContrastShader" style="rounded=0;whiteSpace=wrap;html=1;fillColor=#FFFFFF;align=left;strokeColor=#B3B3B3;strokeWidth=0.5;dashed=1;dashPattern=1 1;fontSize=10;glass=0;" vertex="1" parent="1">
          <mxGeometry x="175" y="420" width="130" height="25" as="geometry" />
        </mxCell>
        <mxCell id="LNhnB2jVi7hmLSDCqyhb-7" value="OutputPass" style="rounded=0;whiteSpace=wrap;html=1;fillColor=#E6E6E6;align=left;strokeColor=#999999;strokeWidth=0.5;spacingLeft=4;glass=0;" vertex="1" parent="1">
          <mxGeometry x="90" y="455" width="220" height="20" as="geometry" />
        </mxCell>
        <mxCell id="LNhnB2jVi7hmLSDCqyhb-8" value="EffectComposer" style="rounded=0;whiteSpace=wrap;html=1;fillColor=#FFFFFF;align=left;fontSize=14;fontStyle=1;verticalAlign=top;spacingLeft=7;glass=0;" vertex="1" parent="1">
          <mxGeometry x="360" y="280" width="230" height="150" as="geometry" />
        </mxCell>
        <mxCell id="LNhnB2jVi7hmLSDCqyhb-9" value="RenderPass" style="rounded=0;whiteSpace=wrap;html=1;fillColor=#E6E6E6;align=left;strokeColor=#999999;strokeWidth=0.5;spacingLeft=4;glass=0;" vertex="1" parent="1">
          <mxGeometry x="370" y="310" width="210" height="20" as="geometry" />
        </mxCell>
        <mxCell id="LNhnB2jVi7hmLSDCqyhb-10" value="ShaderPass" style="rounded=0;whiteSpace=wrap;html=1;fillColor=#E6E6E6;align=left;strokeColor=#999999;strokeWidth=0.5;arcSize=6;spacingLeft=4;glass=0;" vertex="1" parent="1">
          <mxGeometry x="370" y="335" width="210" height="60" as="geometry" />
        </mxCell>
        <mxCell id="LNhnB2jVi7hmLSDCqyhb-11" value="OutputPass" style="rounded=0;whiteSpace=wrap;html=1;fillColor=#E6E6E6;align=left;strokeColor=#999999;strokeWidth=0.5;spacingLeft=4;glass=0;" vertex="1" parent="1">
          <mxGeometry x="370" y="400" width="210" height="20" as="geometry" />
        </mxCell>
        <mxCell id="LNhnB2jVi7hmLSDCqyhb-12" value="&lt;font style=&quot;font-size: 6px;&quot; color=&quot;#808080&quot;&gt;OOPSJS SHADER:&lt;/font&gt;&lt;br&gt;RGBShiftShader&lt;br&gt;ColorifyShader&lt;br&gt;BrightnessContrastShader" style="rounded=0;whiteSpace=wrap;html=1;fillColor=#FFFFFF;align=left;strokeColor=#B3B3B3;strokeWidth=0.5;dashed=1;dashPattern=1 1;fontSize=10;glass=0;" vertex="1" parent="1">
          <mxGeometry x="450" y="340" width="125" height="50" as="geometry" />
        </mxCell>
        <mxCell id="LNhnB2jVi7hmLSDCqyhb-13" value="" style="endArrow=classic;html=1;rounded=0;" edge="1" parent="1">
          <mxGeometry width="50" height="50" relative="1" as="geometry">
            <mxPoint x="325" y="350" as="sourcePoint" />
            <mxPoint x="355" y="350" as="targetPoint" />
          </mxGeometry>
        </mxCell>
        <mxCell id="LNhnB2jVi7hmLSDCqyhb-14" value="Test 2A" style="text;html=1;strokeColor=none;fillColor=none;align=left;verticalAlign=middle;whiteSpace=wrap;rounded=0;" vertex="1" parent="1">
          <mxGeometry x="80" y="260" width="60" height="20" as="geometry" />
        </mxCell>
        <mxCell id="LNhnB2jVi7hmLSDCqyhb-15" value="Test 2B" style="text;html=1;strokeColor=none;fillColor=none;align=left;verticalAlign=middle;whiteSpace=wrap;rounded=0;" vertex="1" parent="1">
          <mxGeometry x="360" y="260" width="60" height="20" as="geometry" />
        </mxCell>
        <mxCell id="LNhnB2jVi7hmLSDCqyhb-18" value="ShaderPass" style="rounded=0;whiteSpace=wrap;html=1;fillColor=#E6E6E6;align=left;strokeColor=#999999;strokeWidth=0.5;arcSize=10;spacingLeft=4;glass=0;" vertex="1" parent="1">
          <mxGeometry x="90" y="375" width="220" height="35" as="geometry" />
        </mxCell>
        <mxCell id="LNhnB2jVi7hmLSDCqyhb-19" value="&lt;font style=&quot;font-size: 6px;&quot; color=&quot;#808080&quot;&gt;THREEJS SHADER:&lt;/font&gt;&lt;br&gt;ColorifyShader" style="rounded=0;whiteSpace=wrap;html=1;fillColor=#FFFFFF;align=left;strokeColor=#B3B3B3;strokeWidth=0.5;dashed=1;dashPattern=1 1;fontSize=10;glass=0;" vertex="1" parent="1">
          <mxGeometry x="175" y="380" width="130" height="25" as="geometry" />
        </mxCell>
      </root>
    </mxGraphModel>
  </diagram>
</mxfile>
